<svg xmlns="http://www.w3.org/2000/svg" width="640" height="400" viewBox="0 0 640 400" fill="none">
  <defs>
    <linearGradient id="pcg" x1="0" y1="0" x2="1" y2="1">
      <stop offset="0" stop-color="#0e2a22"/>
      <stop offset="1" stop-color="#1e4a3b"/>
    </linearGradient>
  </defs>
  <rect width="640" height="400" fill="url(#pcg)"/>
  <g opacity="0.22" stroke="#c9a227" stroke-width="1">
    <circle cx="320" cy="200" r="128"/>
    <circle cx="320" cy="200" r="88"/>
  </g>
  <g transform="translate(320 206)" stroke="#c9a227" stroke-width="7" stroke-linejoin="round" stroke-linecap="round" fill="none">
    <circle cx="-70" cy="-58" r="22"/>
    <circle cx="70" cy="-58" r="22"/>
    <path d="M-108 28c4-32 22-50 38-50s34 18 38 50"/>
    <path d="M32 28c4-32 22-50 38-50s34 18 38 50"/>
    <path d="M-42 70c8-28 24-42 42-42s34 14 42 42"/>
    <path d="M0 22c-16-18-16-34 0-42 16 8 16 24 0 42z"/>
  </g>
</svg>
